<?xml version="1.0" encoding="UTF-8"?>
<svg width="76px" height="137px" viewBox="0 0 76 137" version="1.1" xmlns="http://www.w3.org/2000/svg" xmlns:xlink="http://www.w3.org/1999/xlink">
    <title>Group</title>
    <defs>
        <path d="M0,0 L74.3050848,0 L74.3050848,106.942432 C74.3050848,107.663743 73.9701759,108.344166 73.3983305,108.783805 L38.1045763,135.919093 C37.2615773,136.567512 36.0858191,136.560337 35.2507966,135.901678 L0.884694915,108.783805 C0.32628118,108.343696 0,107.672009 0,106.961008 L0,0 Z" id="path-1"></path>
        <linearGradient x1="50%" y1="100%" x2="50%" y2="0%" id="linearGradient-3">
            <stop stop-color="#98E4D2" stop-opacity="0" offset="0%"></stop>
            <stop stop-color="#5FC5A6" offset="100%"></stop>
        </linearGradient>
        <linearGradient x1="50%" y1="100%" x2="50%" y2="0%" id="linearGradient-4">
            <stop stop-color="#FFE588" stop-opacity="0" offset="0%"></stop>
            <stop stop-color="#FFC750" offset="100%"></stop>
        </linearGradient>
        <linearGradient x1="50%" y1="100%" x2="50%" y2="0%" id="linearGradient-5">
            <stop stop-color="#FFA1C7" stop-opacity="0" offset="0%"></stop>
            <stop stop-color="#FF6895" offset="100%"></stop>
        </linearGradient>
        <linearGradient x1="50%" y1="100%" x2="50%" y2="0%" id="linearGradient-6">
            <stop stop-color="#8F9FFB" stop-opacity="0" offset="0%"></stop>
            <stop stop-color="#5666F6" offset="100%"></stop>
        </linearGradient>
    </defs>
    <g id="Page-1" stroke="none" stroke-width="1" fill="none" fill-rule="evenodd">
        <g id="Home" transform="translate(-1153.000000, 0.000000)">
            <g id="Group" transform="translate(1153.694915, 0.000000)">
                <g id="a-link" fill="#ECEBFF" fill-rule="nonzero">
                    <path d="M0,0 L74.3050848,0 L74.3050848,106.942432 C74.3050848,107.663743 73.9701759,108.344166 73.3983305,108.783805 L38.1045763,135.919093 C37.2615773,136.567512 36.0858191,136.560337 35.2507966,135.901678 L0.884694915,108.783805 C0.32628118,108.343696 0,107.672009 0,106.961008 L0,0 Z" id="a"></path>
                </g>
                <g id="Clipped">
                    <mask id="mask-2" fill="white">
                        <use xlink:href="#path-1"></use>
                    </mask>
                    <g id="a"></g>
                    <g id="Group" mask="url(#mask-2)" fill-rule="nonzero">
                        <g transform="translate(0.000000, -26.703390)" id="Path">
                            <polygon fill="url(#linearGradient-3)" points="0 0.608372881 18.7806102 0.608372881 18.7806102 65.0308814 0 65.0308814"></polygon>
                            <polygon fill="url(#linearGradient-4)" points="18.7806102 0.608372881 37.5612203 0.608372881 37.5612203 65.0308814 18.7806102 65.0308814"></polygon>
                            <polygon fill="url(#linearGradient-5)" points="37.5612203 0.608372881 55.5256356 0.608372881 55.5256356 65.0308814 37.5612203 65.0308814"></polygon>
                            <polygon fill="url(#linearGradient-6)" points="55.5244746 0.608372881 74.3050847 0.608372881 74.3050847 65.0308814 55.5244746 65.0308814"></polygon>
                        </g>
                    </g>
                </g>
                <ellipse id="Oval" fill="#FFFFFF" fill-rule="nonzero" cx="37.1525424" cy="43.6275339" rx="29.8033051" ry="29.7649915"></ellipse>
                <polygon id="Path" fill="#1F294F" fill-rule="nonzero" points="31.5401864 43.8167797 37.5681864 34.3521695 43.5961864 43.8167797 37.5681864 47.2580339"></polygon>
                <polygon id="Path" fill="#1F294F" fill-rule="nonzero" points="31.5401864 45.4329153 37.5681864 48.8753305 43.5961864 45.4329153 37.5681864 53.6064746"></polygon>
                <path d="M40.3093475,30.5115254 C39.3735678,30.9492288 38.4621695,31.4356949 37.5786356,31.9720847 C36.6907662,31.4301369 35.771998,30.9405148 34.8270254,30.5057203 C35.7093926,29.9095857 36.6211673,29.3581809 37.5588983,28.8535932 C38.5021874,29.3615008 39.420098,29.9151919 40.3093475,30.5126864 L40.3093475,30.5115254 Z" id="Path" fill="#5F9A34" fill-rule="nonzero"></path>
                <path d="M53.1792203,28.3798983 C49.870322,25.073322 43.841161,25.4692288 37.5588983,28.8535932 C38.5021874,29.3615008 39.420098,29.9151919 40.3093475,30.5126864 C42.741678,29.388822 45.0579068,28.7862542 47.0200254,28.7862542 C48.7754831,28.7862542 50.2476525,29.2669153 51.2693475,30.2862881 C53.4346441,32.4504237 53.1768983,36.6393729 51.0452712,41.2404831 C51.6427494,42.129173 52.1968171,43.0462907 52.7055254,43.9886102 C56.0933729,37.7109915 56.4881186,31.6853136 53.1792203,28.3798983 L53.1792203,28.3798983 Z" id="Path" fill="#FFC750" fill-rule="nonzero"></path>
                <path d="M40.3093475,30.5115254 C39.3735678,30.9492288 38.4621695,31.4356949 37.5786356,31.9720847 C42.4574946,34.9876308 46.5659758,39.0992922 49.5777458,43.9804831 C50.115878,43.0942274 50.6057662,42.1795628 51.0452712,41.2404831 C49.6189934,39.1303779 47.9922061,37.1629917 46.1875763,35.3657373 C44.3905001,33.5609077 42.4217825,31.9355394 40.3093475,30.5126864 L40.3093475,30.5115254 Z" id="Path" fill="#FFC750" fill-rule="nonzero"></path>
                <path d="M52.7055254,43.9886102 C52.1981824,44.9278466 51.6448674,45.8415138 51.0475932,46.7262881 C50.6081354,45.7848743 50.1174516,44.8682335 49.5777458,43.9804831 C50.1152966,43.0934661 50.6064068,42.1797458 51.0452712,41.2404831 C51.6427709,42.1291593 52.1968392,43.0462781 52.7055254,43.9886102 L52.7055254,43.9886102 Z" id="Path" fill="#FF512F" fill-rule="nonzero"></path>
                <path d="M51.0475932,46.7262881 C50.6081354,45.7848743 50.1174516,44.8682335 49.5777458,43.9804831 C48.0854498,46.4189246 46.3060601,48.66957 44.2777034,50.6841949 C42.2647007,52.7127889 40.0156098,54.4925721 37.5786356,55.9853983 C38.4610085,56.5229492 39.3724068,57.0105763 40.3093475,57.4459576 C42.4218302,56.022732 44.3905491,54.3969738 46.1875763,52.5917458 C47.993058,50.7980011 49.6206546,48.8336872 51.0475932,46.7262881 L51.0475932,46.7262881 Z" id="Path" fill="#FF6895" fill-rule="nonzero"></path>
                <path d="M54.6409407,48.5154153 C54.1398573,46.9488759 53.4918374,45.4332014 52.7055254,43.9886102 C52.1981726,44.927841 51.6448579,45.8415077 51.0475932,46.7262881 C53.1768983,51.3250763 53.4346441,55.5093814 51.2681864,57.6711949 C49.1028898,59.8353305 44.9139407,59.5752627 40.3081864,57.4459576 C39.4197124,58.0452943 38.501322,58.5990411 37.5565763,59.1050508 C40.9037881,60.9069492 44.1755339,61.8624661 47.0049322,61.8624661 C49.4895085,61.8624661 51.6327458,61.1263814 53.1792203,59.5799068 C55.6011017,57.1615085 56.1177542,53.2326271 54.6409407,48.5154153 L54.6409407,48.5154153 Z" id="Path" fill="#FF6895" fill-rule="nonzero"></path>
                <path d="M40.3093475,57.4459576 C39.4208735,58.0452943 38.5024831,58.5990411 37.5577373,59.1050508 C36.6204821,58.5996302 35.7087482,58.0482501 34.8258644,57.4529237 C35.7712588,57.0177903 36.6904161,56.5277798 37.5786356,55.9853983 C38.4610085,56.5229492 39.3724068,57.0105763 40.3093475,57.4459576 L40.3093475,57.4459576 Z" id="Path" fill="#552990" fill-rule="nonzero"></path>
                <path d="M32.2193814,58.4630085 C28.5076102,59.6251864 25.5400508,59.3430593 23.8658644,57.6711949 C22.192839,55.9993305 21.9107119,53.0340932 23.0740508,49.3234831 C23.3538559,48.4364661 23.6917119,47.5668644 24.0829746,46.7228051 C23.4880378,45.8394442 22.9362936,44.9277489 22.4296864,43.9909322 C21.6441319,45.4347817 20.9968859,46.9496872 20.4965932,48.5154153 C19.0174576,53.2326271 19.5364322,57.1615085 21.9559915,59.5799068 C23.4734407,61.0950339 25.5830085,61.8636271 28.1070593,61.8636271 C29.7790326,61.8389727 31.4376117,61.5610423 33.0262881,61.0393051 C34.5946842,60.5382058 36.112284,59.8901938 37.5588983,59.1038898 C36.6212722,58.5988807 35.7091506,58.0478879 34.8258644,57.4529237 C33.9794831,57.8453475 33.1098814,58.1820424 32.2193814,58.4630085 L32.2193814,58.4630085 Z" id="Path" fill="#5666F6" fill-rule="nonzero"></path>
                <path d="M34.8258644,57.4529237 C35.7712588,57.0177903 36.6904161,56.5277798 37.5786356,55.9853983 C35.1337164,54.494343 32.8771176,52.7144793 30.8575085,50.6841949 C28.8262464,48.6667015 27.045208,46.4120449 25.552822,43.9688729 C25.0103564,44.8574413 24.5195923,45.776558 24.0829746,46.7216441 C25.5123197,48.8306323 27.1422307,50.7964792 28.9499576,52.5917458 C30.7457284,54.3994973 32.7136983,56.0276123 34.8258644,57.4529237 L34.8258644,57.4529237 Z" id="Path" fill="#5666F6" fill-rule="nonzero"></path>
                <path d="M25.5539831,43.9677119 C25.0113718,44.8567952 24.5202282,45.7762841 24.0829746,46.7216441 C23.4880701,45.8386613 22.9363263,44.9273541 22.4296864,43.9909322 C22.9242797,43.0702458 23.4804068,42.1495593 24.0922627,41.2404831 C24.5271703,42.1768138 25.0148056,43.0877383 25.552822,43.9688729 L25.5539831,43.9677119 Z" id="Path" fill="#204FA0" fill-rule="nonzero"></path>
                <path d="M23.8658644,30.2862881 C25.5400508,28.6144237 28.5076102,28.3322966 32.2193814,29.4967966 C33.1085902,29.7778755 33.979152,30.1148547 34.8258644,30.5057203 C35.7086093,29.9095522 36.6207722,29.358147 37.5588983,28.8535932 C36.1127053,28.0667292 34.5950141,27.4190669 33.0262881,26.919339 C28.3079153,25.4448475 24.3767119,25.960339 21.9559915,28.3798983 C20.4083559,29.9252119 19.6722712,32.0672881 19.6722712,34.5495424 C19.6722712,37.3766186 20.6277881,40.6495254 22.4296864,43.9909322 C22.9242797,43.0702458 23.4804068,42.1495593 24.0922627,41.2404831 C21.9606356,36.6393729 21.7005678,32.4515847 23.8658644,30.2862881 L23.8658644,30.2862881 Z" id="Path" fill="#5FC5A6" fill-rule="nonzero"></path>
                <path d="M34.8258644,30.5057203 C30.6027435,33.3746971 26.9607827,37.0170519 24.0922627,41.2404831 C24.5271703,42.1768138 25.0148056,43.0877383 25.552822,43.9688729 C28.5724872,39.0880061 32.690486,34.9799465 37.5786356,31.9720847 C36.6907662,31.4301369 35.771998,30.9405148 34.8270254,30.5057203 L34.8258644,30.5057203 Z" id="Path" fill="#5FC5A6" fill-rule="nonzero"></path>
                <path d="M11.2618601,89.8151102 C11.2586543,87.6183921 13.035828,85.8344632 15.2325424,85.829339 C17.4314784,85.8331796 19.2123925,87.6161712 19.2136695,89.8151102 C19.2121324,90.8690061 18.7916804,91.8790579 18.0449398,92.6227497 C17.2981992,93.3664414 16.2864358,93.7827576 15.2325424,93.7799968 C14.1797043,93.782452 13.1691923,93.3657043 12.4241769,92.6217781 C11.6791615,91.8778519 11.2609358,90.8679507 11.2618601,89.8151102 L11.2618601,89.8151102 Z M17.1331271,89.8035 C17.1331271,88.7570421 16.2848054,87.9087203 15.2383475,87.9087203 C14.1918895,87.9087203 13.3435678,88.7570421 13.3435678,89.8035 C13.3435678,90.8437712 14.1922712,91.7017627 15.2325424,91.7017627 C16.2800561,91.6998535 17.1292965,90.8521695 17.1331271,89.804661 L17.1331271,89.8035 Z M20.6672627,93.7799831 L20.6672627,85.829339 L25.6561525,85.829339 L25.6561525,87.5464831 L22.7582542,87.5464831 L22.7582542,88.8398559 L25.3171356,88.8398559 L25.3171356,90.6104068 L22.7582542,90.6104068 L22.7582542,93.7799831 L20.6684237,93.7799831 L20.6672627,93.7799831 Z M27.1527034,93.7799831 L27.1527034,85.829339 L32.1427542,85.829339 L32.1427542,87.5464831 L29.2448559,87.5464831 L29.2448559,88.8398559 L31.8025763,88.8398559 L31.8025763,90.6104068 L29.2448559,90.6104068 L29.2448559,93.7799831 L27.1527034,93.7799831 L27.1527034,93.7799831 Z M33.6288559,93.7799831 L33.6288559,85.829339 L35.7186864,85.829339 L35.7186864,93.7799831 L33.6288559,93.7799831 Z M43.9143051,86.9845508 L42.4491017,88.4590424 C42.1205339,88.1293136 41.6538051,87.9389068 41.1116102,87.9389068 C40.0295424,87.9389068 39.2435339,88.7225932 39.2435339,89.804661 C39.2435339,90.8855678 40.0295424,91.6704153 41.1127712,91.6704153 C41.6538051,91.6704153 42.1205339,91.4788475 42.4491017,91.1398305 L43.9352034,92.6027119 C42.7999112,93.7455759 41.0876477,94.0913713 39.5978127,93.4786576 C38.1079777,92.8659439 37.134413,91.4155672 37.1316441,89.804661 C37.1342068,87.6084003 38.9153479,85.829339 41.1116102,85.829339 C42.2052881,85.829339 43.1921525,86.2635593 43.9143051,86.9845508 L43.9143051,86.9845508 Z M45.5165085,93.7799831 L45.5165085,85.829339 L47.608661,85.829339 L47.608661,93.7799831 L45.5176695,93.7799831 L45.5165085,93.7799831 Z M50.7712712,93.7799831 L48.6814407,93.7799831 L52.3966949,85.829339 L53.3406017,85.829339 L57.0872034,93.7799831 L54.9973729,93.7799831 L54.5085847,92.7408729 L51.2496102,92.7408729 L50.7712712,93.7799831 L50.7712712,93.7799831 Z M52.884322,89.2322797 L52.0669661,90.9807712 L53.6912288,90.9807712 L52.884322,89.2322797 Z M58.1495339,93.7799831 L58.1495339,85.829339 L60.2393644,85.829339 L60.2393644,91.6808644 L63.1070763,91.6808644 L63.1070763,93.7799831 L58.1495339,93.7799831 L58.1495339,93.7799831 Z" id="Shape" fill="#1F294F" fill-rule="nonzero"></path>
                <path d="M21.7179831,101.328915 L18.2151949,101.328915 L18.2151949,104.072398 L21.2663475,104.072398 L21.2663475,104.893237 L18.2163559,104.893237 L18.2163559,107.63672 L21.7191441,107.63672 L21.7191441,108.45872 L17.3664915,108.45872 L17.3664915,100.506915 L21.7191441,100.506915 L21.7191441,101.328915 L21.7179831,101.328915 Z M29.9194068,100.506915 L30.8482203,100.506915 L27.9688983,108.45872 L27.0261525,108.45872 L24.1468305,100.506915 L25.0895763,100.506915 L27.5044915,107.372008 L29.9194068,100.506915 L29.9194068,100.506915 Z M37.8677288,101.328915 L34.3661017,101.328915 L34.3661017,104.072398 L37.4184153,104.072398 L37.4184153,104.893237 L34.3661017,104.893237 L34.3661017,107.63672 L37.8688898,107.63672 L37.8688898,108.45872 L33.5173983,108.45872 L33.5173983,100.506915 L37.8688898,100.506915 L37.8688898,101.328915 L37.8677288,101.328915 Z M46.9851949,100.506915 L47.8211271,100.506915 L47.8211271,108.45872 L47.0246695,108.45872 L42.1147288,101.925678 L42.1147288,108.45872 L41.2660254,108.45872 L41.2660254,100.506915 L42.0624831,100.506915 L46.9851949,107.039958 L46.9851949,100.506915 Z M55.7961525,100.506915 L55.7961525,101.354458 L53.5937034,101.354458 L53.5937034,108.45872 L52.743839,108.45872 L52.743839,101.355619 L50.5413898,101.355619 L50.5413898,100.508076 L55.7961525,100.508076 L55.7961525,100.506915 Z" id="Shape" fill="#1F294F" fill-rule="nonzero" opacity="0.6"></path>
            </g>
        </g>
    </g>
</svg>