<svg id="Layer_1" data-name="Layer 1" xmlns="http://www.w3.org/2000/svg" viewBox="0 0 405.01 384.93"><defs><style>.cls-1{fill:#1b4351;}.cls-2{fill:#152d38;}.cls-3{fill:#69c4cd;}.cls-4{fill:#16333f;}.cls-5{fill:#995919;}.cls-6{fill:#7f4a14;}.cls-7{fill:#f39021;}</style></defs><path class="cls-1" d="M158.93,10.74l12.69,46.48L164.3,178.93l-14-38.65Zm53.89,49.94,8.85,43.62.92-23.88-8.67-45.11Zm56.83,25.69,4.57,42.1,1.25-71.69-4.32-46.59Zm-60.26,53.74,9.38,38.7,1.95-50.17-9-42ZM397.87,9.57l-5.16,46.72,2.2,71.81,5.51-42.22Zm60.82,76.09-10,42.27L450,152.84l10.23-40.62Zm-63,67.32.78,25.41,5.76-38.85-.91-27.13Z" transform="translate(-104 -7.07)"/><path class="cls-2" d="M222.59,80.42l-8.67-45.11,14.18-.06,7.61,45.12ZM211.7,86.59l9,42,53.5-.17-4.57-42.1ZM441.5,34.28,433,79.61l52.81-.2L498.63,34ZM394.91,128.1l53.78-.17,10-42.27-58.27.22ZM384.46,34.54l-56.94.26L327.63,80l52.64-.21Zm-56.64,93.77,53.67-.17,4.38-42.2-58.15.21Z" transform="translate(-104 -7.07)"/><path class="cls-3" d="M158.93,10.74,150.3,140.28l-44.27.13,10.9-129.47Zm6.14,129.5,44.32-.13,2.31-53.52,57.95-.22,1.5-76.18-98.21.48Zm62.09-79.62-14.34.06,1.1-25.37,14.18-.06-.94,25.37m170.71-51,2.55,76.31,58.27-.22,1.52,26.56-58.91.19.91,27.13,104.29-.3-6-79.75-57.74.24-1.3-25.45L498.63,34,496.76,9.08Zm-112.66.55-1.78,129.77,44.5-.13-.21-53.61,58.15-.21-.71-26-57.54.23-.1-25.4,56.94-.26-.69-24.91Z" transform="translate(-104 -7.07)"/><path class="cls-4" d="M150.3,140.28l14,38.65-40.81.1L106,140.41Zm14.77,0,12.85,38.66,40.85-.09-9.38-38.7Zm237.14-.7-5.76,38.85,96.07-.23,14-38.92Zm-118.78.35L287,178.64l41-.09-.08-38.79Z" transform="translate(-104 -7.07)"/><path d="M496.77,9.08,498.63,34h0l-7.22,25.51,9.13,0,6,79.75-14,38.92-96.07.23h0L395.67,153l3.46-24.9-4.22,0-2.2-71.81,5.16-46.72h0l98.9-.49m-113,.55.69,24.91h0L382.1,60h3.06l.71,26-4.38,42.2-53.61.17.05,11.45.08,38.79-41,.09-3.57-38.75,1.78-129.77,98.56-.49m-56,76.52h0m-56.57-76,4.32,46.59-1.25,71.69-53.5.17-1.95,50.17h0l-40.85.09-11.53-34.7-2.09,34.73-40.81.1L106,140.41l10.9-129.47,42-.2h0l11.46,42,2.55-42,98.21-.48h0M212.82,60.68h0M498.62,7.07h-1.86l-98.9.49h-1.78l-.2,1.78-5.16,46.72v.28l2.2,71.81.06,1.94h3.86l-3.14,22.62,0,.17v.17l.78,25.4.06,1.94h1.94l96.08-.23h1.4l.47-1.32,14-38.93.15-.4,0-.42-6-79.75-.14-1.86h-1.86l-6.47,0,6.5-22.94.09-.34,0-.36L498.76,8.93l-.14-1.86Zm-112.9.56h-2l-98.56.49h-2l0,2-1.78,129.77v.22L285,178.83l.17,1.82H287l41-.09h2v-2l-.08-38.78,0-9.46,51.6-.16h1.8l.19-1.78,4.38-42.21v-.26l-.71-26L387.1,58h-2.8l2.15-23.25v-.24l-.69-24.9,0-1.95ZM273,8.18h-1.83l-98.21.48h-1.87L171,10.55l-1.82,30-8.28-30.29-.4-1.48h-1.53l-42,.2h-1.83l-.15,1.82L104,140.25l0,.51.21.48,17.46,38.61.53,1.18h1.3l40.8-.1h1.88l.11-1.88,1.47-24.37L176,179.53l.46,1.37h1.44l40.86-.09h1.92l.07-1.92,1.88-48.25,51.57-.16h2l0-2,1.25-71.7V56.6L273.14,10,273,8.18Z" transform="translate(-104 -7.07)"/><path class="cls-5" d="M176.59,279.39l2.95,55.52-12.26,54.66-3.45-58.94Zm53.48,20.84,1.06,30.44,7.65-51.28-.91-28.6Zm-56.55-78.55-13.29,47.48,1.82,31.06,13-49.4ZM236,191.88l-8.12,45.5L229,269.14l8-47.52ZM378.1,335l3.77,54.82.53-29.24-3.85-53.14Zm63.42-55.67-1.06,28.12,8.91,53.19,1.25-29.89Zm-62.52,0,3.93,51.38,1.68-93.48-4.18-45.57ZM298.53,330.7l.68,59L301.62,335l-.58-55.6Zm1.91-109.13-2.62,47.55.36,31.12,2.56-49.48Z" transform="translate(-104 -7.07)"/><path class="cls-6" d="M175.07,250.82l62.8,0-7.8,49.44h-68ZM236,191.88,124,192l-17.63,45.44,121.5-.08ZM378.55,307.47l3.85,53.14,67,.06-8.91-53.19Zm48.25-56.78,8,49.57h68.47L490,250.66ZM507,237.19l-13.81-45.64-112.74.15,4.18,45.57Zm-208.8,63.05h17l1.25-49.49H300.74ZM252,191.86l-6.77,45.51,121.94-.09-2.81-45.56Z" transform="translate(-104 -7.07)"/><path class="cls-7" d="M227.87,237.38,229,269.14l-68.75,0,1.82,31.06h68l1.06,30.44-67.3,0,3.45,58.94-49.34-.06-11.57-152Zm156.74-.11-1.68,93.48,67.69,0-1.25,29.89-67-.06-.53,29.24,116.05.15,5.32-89.73H434.77l1.11-31.17,69.21,0L507,237.19ZM249.68,389.68l49.53.06-.68-59,67.52,0,1.12-93.45-121.93.08Zm65.54-89.44h-17l-.36-31.12H315l.18,31.12" transform="translate(-104 -7.07)"/><path d="M493.17,191.55,507,237.19l-1.89,31.88H494.91l8.33,31.2L497.92,390l-116-.15L378.1,335l.45-27.56h2.6L379,279.37l1.42-87.67,112.74-.15m-128.8.17,2.8,45.56-1.12,93.46-64.47,0,0,4.28-2.41,54.76-49.53-.06-4.44-152.31L252,191.86l112.36-.14M236,191.88l.95,29.74-4.89,29.17h5.82l.91,28.6-7.65,51.28-51.82,0,.23,4.27-12.26,54.66-49.34-.06-11.57-152L124,192l112-.14m258.66-2.33h-1.48l-112.74.15h-2l0,2L377,279.34v.18l2,26h-2.41l0,2L376.1,335v.17L379.88,390l.12,1.86h1.87l116.05.15h1.88l.11-1.88,5.33-89.73,0-.32-.09-.32-7.66-28.68H507l.11-1.88L509,237.31l0-.36-.1-.34L495.08,191l-.43-1.43Zm-128.4.16h-1.88L252,189.86h-1.72l-.25,1.7-6.77,45.51,0,.18v.17l4.44,152.32.06,1.94h1.94l49.53.06h1.91l.09-1.92,2.41-54.76V335l0-2.25,62.45,0h2l0-2,1.12-93.45v-.15l-2.81-45.57-.11-1.88Zm-128.32.17H236L124,190h-1.37l-.49,1.28-17.63,45.44-.17.42,0,.45L116,389.66l.14,1.85h1.85l49.34.06h1.6l.35-1.56,12.26-54.66.06-.27,0-.28-.11-2.16,49.71,0h1.73l.25-1.71,7.64-51.28,0-.18v-.18l-.9-28.59-.07-1.94h-5.38L238.91,222l0-.2v-.2L238,191.81l-.06-1.93Z" transform="translate(-104 -7.07)"/></svg>