<svg width="256" height="58" viewBox="0 0 256 58" fill="none" xmlns="http://www.w3.org/2000/svg">
<path d="M88.646 25.308C86.358 25.308 84.58 24.685 83.311 23.438C82.042 22.191 81.408 20.424 81.408 18.136V9.6H85.764V18.004C85.764 20.468 86.739 21.7 88.69 21.7C90.626 21.7 91.594 20.468 91.594 18.004V9.6H95.884V18.136C95.884 20.424 95.25 22.191 93.981 23.438C92.712 24.685 90.934 25.308 88.646 25.308ZM113.484 9.6V25H109.898L103.1 16.794V25H98.832V9.6H102.418L109.216 17.806V9.6H113.484ZM121.976 25.308C120.729 25.308 119.519 25.154 118.346 24.846C117.173 24.538 116.219 24.127 115.486 23.614L116.916 20.402C117.606 20.857 118.405 21.223 119.314 21.502C120.223 21.781 121.118 21.92 121.998 21.92C123.67 21.92 124.506 21.502 124.506 20.666C124.506 20.226 124.268 19.9 123.791 19.687C123.314 19.474 122.548 19.251 121.492 19.016C120.333 18.766 119.365 18.499 118.588 18.213C117.811 17.927 117.143 17.469 116.586 16.838C116.029 16.207 115.75 15.357 115.75 14.286C115.75 13.347 116.007 12.5 116.52 11.745C117.033 10.99 117.8 10.392 118.819 9.952C119.838 9.512 121.089 9.292 122.57 9.292C123.582 9.292 124.58 9.406 125.562 9.633C126.544 9.86 127.41 10.194 128.158 10.634L126.816 13.868C125.349 13.076 123.926 12.68 122.548 12.68C121.683 12.68 121.052 12.808 120.656 13.065C120.26 13.322 120.062 13.655 120.062 14.066C120.062 14.477 120.297 14.785 120.766 14.99C121.235 15.195 121.991 15.408 123.032 15.628C124.205 15.878 125.177 16.145 125.947 16.431C126.717 16.717 127.384 17.171 127.949 17.795C128.514 18.418 128.796 19.265 128.796 20.336C128.796 21.26 128.539 22.096 128.026 22.844C127.513 23.592 126.743 24.19 125.716 24.637C124.689 25.084 123.443 25.308 121.976 25.308V25.308ZM134.076 13.054H129.346V9.6H143.14V13.054H138.432V25H134.076V13.054ZM152.534 25.308C150.906 25.308 149.443 24.963 148.145 24.274C146.847 23.585 145.828 22.631 145.087 21.414C144.346 20.197 143.976 18.825 143.976 17.3C143.976 15.775 144.346 14.403 145.087 13.186C145.828 11.969 146.847 11.016 148.145 10.326C149.443 9.636 150.906 9.292 152.534 9.292C154.162 9.292 155.625 9.637 156.923 10.326C158.221 11.016 159.24 11.969 159.981 13.186C160.722 14.403 161.092 15.775 161.092 17.3C161.092 18.825 160.722 20.197 159.981 21.414C159.24 22.631 158.221 23.584 156.923 24.274C155.625 24.964 154.162 25.308 152.534 25.308ZM152.534 21.7C153.311 21.7 154.015 21.517 154.646 21.15C155.277 20.783 155.776 20.266 156.142 19.599C156.509 18.932 156.692 18.165 156.692 17.3C156.692 16.435 156.509 15.668 156.142 15.001C155.775 14.334 155.277 13.817 154.646 13.45C154.015 13.083 153.311 12.9 152.534 12.9C151.757 12.9 151.053 13.083 150.422 13.45C149.791 13.817 149.292 14.334 148.926 15.001C148.56 15.668 148.376 16.435 148.376 17.3C148.376 18.165 148.559 18.932 148.926 19.599C149.293 20.266 149.791 20.783 150.422 21.15C151.053 21.517 151.757 21.7 152.534 21.7ZM170.42 9.6C171.813 9.6 173.023 9.831 174.05 10.293C175.077 10.755 175.869 11.415 176.426 12.273C176.983 13.131 177.262 14.139 177.262 15.298C177.262 16.457 176.983 17.461 176.426 18.312C175.869 19.163 175.076 19.819 174.05 20.281C173.024 20.743 171.813 20.974 170.42 20.974H167.736V25H163.38V9.6H170.42ZM170.156 17.542C171.051 17.542 171.726 17.348 172.18 16.959C172.634 16.57 172.862 16.017 172.862 15.298C172.862 14.579 172.635 14.022 172.18 13.626C171.725 13.23 171.05 13.032 170.156 13.032H167.736V17.542H170.156ZM186.634 9.6C188.027 9.6 189.237 9.831 190.264 10.293C191.291 10.755 192.083 11.415 192.64 12.273C193.197 13.131 193.476 14.139 193.476 15.298C193.476 16.457 193.197 17.461 192.64 18.312C192.083 19.163 191.29 19.819 190.264 20.281C189.238 20.743 188.027 20.974 186.634 20.974H183.95V25H179.594V9.6H186.634ZM186.37 17.542C187.265 17.542 187.94 17.348 188.394 16.959C188.848 16.57 189.076 16.017 189.076 15.298C189.076 14.579 188.849 14.022 188.394 13.626C187.939 13.23 187.264 13.032 186.37 13.032H183.95V17.542H186.37ZM206.126 22.008H199.614L198.404 25H193.96L200.758 9.6H205.048L211.868 25H207.336L206.126 22.008ZM204.85 18.796L202.87 13.868L200.89 18.796H204.85ZM224.936 16.97C225.816 17.278 226.506 17.758 227.004 18.411C227.502 19.064 227.752 19.852 227.752 20.776C227.752 22.126 227.209 23.166 226.124 23.9C225.039 24.634 223.469 25 221.416 25H213.1V9.6H220.976C222.941 9.6 224.437 9.963 225.464 10.689C226.491 11.415 227.004 12.394 227.004 13.626C227.004 14.359 226.824 15.016 226.465 15.595C226.106 16.174 225.596 16.633 224.936 16.97V16.97ZM217.412 12.746V15.716H220.404C221.871 15.716 222.604 15.217 222.604 14.22C222.604 13.237 221.871 12.746 220.404 12.746H217.412ZM221.064 21.854C222.589 21.854 223.352 21.334 223.352 20.292C223.352 19.25 222.589 18.73 221.064 18.73H217.412V21.854H221.064ZM230.018 9.6H234.374V21.546H241.722V25H230.018V9.6ZM255.802 21.634V25H243.438V9.6H255.516V12.966H247.75V15.562H254.592V18.818H247.75V21.634H255.802ZM81.54 33.6H88.822C90.509 33.6 92.005 33.915 93.31 34.546C94.615 35.177 95.627 36.071 96.346 37.23C97.065 38.389 97.424 39.745 97.424 41.3C97.424 42.855 97.064 44.211 96.346 45.37C95.628 46.529 94.616 47.423 93.31 48.054C92.004 48.685 90.509 49 88.822 49H81.54V33.6ZM88.646 45.524C89.966 45.524 91.026 45.15 91.825 44.402C92.624 43.654 93.024 42.62 93.024 41.3C93.024 39.98 92.624 38.946 91.825 38.198C91.026 37.45 89.966 37.076 88.646 37.076H85.896V45.524H88.646ZM107.478 49.308C105.85 49.308 104.387 48.963 103.089 48.274C101.791 47.585 100.772 46.631 100.031 45.414C99.291 44.197 98.92 42.825 98.92 41.3C98.92 39.775 99.29 38.403 100.031 37.186C100.771 35.969 101.791 35.016 103.089 34.326C104.387 33.636 105.85 33.292 107.478 33.292C109.106 33.292 110.569 33.637 111.867 34.326C113.165 35.015 114.184 35.969 114.925 37.186C115.666 38.403 116.036 39.775 116.036 41.3C116.036 42.825 115.666 44.197 114.925 45.414C114.184 46.631 113.165 47.584 111.867 48.274C110.569 48.964 109.106 49.308 107.478 49.308V49.308ZM107.478 45.7C108.255 45.7 108.959 45.517 109.59 45.15C110.221 44.783 110.72 44.266 111.086 43.599C111.453 42.932 111.636 42.165 111.636 41.3C111.636 40.435 111.453 39.668 111.086 39.001C110.719 38.334 110.221 37.817 109.59 37.45C108.959 37.083 108.255 36.9 107.478 36.9C106.701 36.9 105.997 37.083 105.366 37.45C104.735 37.817 104.236 38.334 103.87 39.001C103.503 39.668 103.32 40.435 103.32 41.3C103.32 42.165 103.503 42.932 103.87 43.599C104.237 44.266 104.735 44.783 105.366 45.15C105.997 45.517 106.701 45.7 107.478 45.7ZM132.228 49L132.184 40.838L128.224 47.482H126.288L122.35 41.058V49H118.324V33.6H121.91L127.322 42.488L132.602 33.6H136.188L136.232 49H132.228ZM149.63 46.008H143.118L141.908 49H137.464L144.262 33.6H148.552L155.372 49H150.84L149.63 46.008ZM148.354 42.796L146.374 37.868L144.394 42.796H148.354ZM156.604 33.6H160.96V49H156.604V33.6ZM178.714 33.6V49H175.128L168.33 40.794V49H164.062V33.6H167.648L174.446 41.806V33.6H178.714ZM187.206 49.308C185.959 49.308 184.749 49.154 183.576 48.846C182.403 48.538 181.449 48.127 180.716 47.614L182.146 44.402C182.836 44.857 183.635 45.223 184.544 45.502C185.453 45.781 186.348 45.92 187.228 45.92C188.9 45.92 189.736 45.502 189.736 44.666C189.736 44.226 189.498 43.9 189.021 43.687C188.544 43.474 187.778 43.251 186.722 43.016C185.563 42.766 184.595 42.499 183.818 42.213C183.041 41.927 182.373 41.469 181.816 40.838C181.259 40.207 180.98 39.357 180.98 38.286C180.98 37.347 181.237 36.5 181.75 35.745C182.263 34.99 183.03 34.392 184.049 33.952C185.068 33.512 186.319 33.292 187.8 33.292C188.812 33.292 189.81 33.406 190.792 33.633C191.774 33.86 192.64 34.194 193.388 34.634L192.046 37.868C190.579 37.076 189.156 36.68 187.778 36.68C186.913 36.68 186.282 36.808 185.886 37.065C185.49 37.322 185.292 37.655 185.292 38.066C185.292 38.477 185.527 38.785 185.996 38.99C186.465 39.195 187.221 39.408 188.262 39.628C189.435 39.878 190.407 40.145 191.177 40.431C191.947 40.717 192.614 41.171 193.179 41.795C193.744 42.419 194.026 43.265 194.026 44.336C194.026 45.26 193.769 46.096 193.256 46.844C192.743 47.592 191.973 48.19 190.946 48.637C189.919 49.084 188.673 49.308 187.206 49.308V49.308Z" fill="white"/>
<path fill-rule="evenodd" clip-rule="evenodd" d="M64 1V23L0 49L64 1Z" fill="#2FE9FF"/>
<path fill-rule="evenodd" clip-rule="evenodd" d="M52 0V38C52 49.046 43.046 58 32 58C20.954 58 12 49.046 12 38V22L24 15.4V38C24 39.8565 24.7375 41.637 26.0503 42.9497C27.363 44.2625 29.1435 45 31 45C32.8565 45 34.637 44.2625 35.9497 42.9497C37.2625 41.637 38 39.8565 38 38V7.7L52 0Z" fill="#4C47F7"/>
</svg>
